<?xml version="1.0" encoding="UTF-8"?>
<svg xmlns="http://www.w3.org/2000/svg" width="32" height="32" viewBox="0 0 32 32">
  <defs>
    <linearGradient id="blue" x1="0" y1="0" x2="0" y2="1"><stop stop-color="#8fc4ff"/><stop offset=".55" stop-color="#4d91ef"/><stop offset="1" stop-color="#2865d2"/></linearGradient>
    <linearGradient id="blueDark" x1="0" y1="0" x2="0" y2="1"><stop stop-color="#6689df"/><stop offset=".55" stop-color="#244bb4"/><stop offset="1" stop-color="#102878"/></linearGradient>
    <linearGradient id="red" x1="0" y1="0" x2="0" y2="1"><stop stop-color="#ff9eaa"/><stop offset=".5" stop-color="#ee293d"/><stop offset="1" stop-color="#bd0012"/></linearGradient>
    <linearGradient id="green" x1="0" y1="0" x2="0" y2="1"><stop stop-color="#8ee890"/><stop offset=".5" stop-color="#22b725"/><stop offset="1" stop-color="#087d0b"/></linearGradient>
    <linearGradient id="gold" x1="0" y1="0" x2="0" y2="1"><stop stop-color="#fff8a5"/><stop offset=".45" stop-color="#ffd735"/><stop offset="1" stop-color="#eea900"/></linearGradient>
    <linearGradient id="steel" x1="0" y1="0" x2="1" y2="1"><stop stop-color="#f4f6f8"/><stop offset=".45" stop-color="#a5a9ad"/><stop offset="1" stop-color="#55595e"/></linearGradient>
    <linearGradient id="paper" x1="0" y1="0" x2="0" y2="1"><stop stop-color="#f7fbff"/><stop offset="1" stop-color="#dce8f5"/></linearGradient>
    <filter id="shadow" x="-25%" y="-25%" width="160%" height="160%"><feDropShadow dx="1.2" dy="1.5" stdDeviation=".8" flood-color="#111" flood-opacity=".35"/></filter>
  </defs>
  <g filter="url(#shadow)">
    <circle cx="16" cy="16" r="14" fill="#1d4e88" stroke="#153b70" stroke-width="1.2"/>
    <path d="M3 16a13 13 0 0 1 26 0z" fill="#7aa2c9"/>
    <path d="M3 17h26a13 13 0 0 1-25 5z" fill="#0d3975"/>
    <g stroke="#fff" stroke-width="1.1" stroke-linecap="round">
      <path d="M16 3v3M16 26v3M3 16h3M26 16h3"/>
      <path d="m9.5 4.8 1.5 2.6M22.5 4.8 21 7.4M27.2 9.5l-2.6 1.5M27.2 22.5l-2.6-1.5M22.5 27.2 21 24.6M9.5 27.2 11 24.6M4.8 22.5l2.6-1.5M4.8 9.5l2.6 1.5"/>
    </g>
    <path d="M16 5v11l-6 6" fill="none" stroke="#fff" stroke-width="1.6" stroke-linecap="round"/>
    <path d="M16 16h9" stroke="#f0445b" stroke-width="1.6" stroke-linecap="round"/>
  </g>
</svg>
